<?xml version="1.0" encoding="UTF-8"?>
<svg id="Capa_1" xmlns="http://www.w3.org/2000/svg" version="1.1" viewBox="0 0 680.31 680.31">
  <!-- Generator: Adobe Illustrator 30.1.0, SVG Export Plug-In . SVG Version: 2.1.1 Build 136)  -->
  <defs>
    <style>
      .st0 {
        fill: #79cfde;
      }

      .st1 {
        fill: #4892ae;
      }

      .st2 {
        fill: #2c88ac;
      }

      .st3 {
        fill: #6ab8cf;
      }

      .st4 {
        fill: #276e93;
      }

      .st5 {
        fill: #fff;
      }

      .st6 {
        fill: #74cbdf;
      }

      .st7 {
        fill: #1f648a;
      }

      .st8, .st9 {
        stroke-width: 16px;
      }

      .st8, .st9, .st10, .st11 {
        fill: none;
        stroke: #011b34;
      }

      .st8, .st10, .st11 {
        stroke-miterlimit: 10;
      }

      .st9 {
        stroke-linejoin: round;
      }

      .st12 {
        fill: #a4d6da;
      }

      .st13 {
        fill: #a6dae4;
      }

      .st14 {
        fill: #011b34;
      }

      .st15 {
        fill: #317fa5;
      }

      .st16 {
        fill: #296f99;
      }

      .st17 {
        fill: #a5d9df;
      }

      .st18 {
        fill: #c6efee;
      }

      .st10 {
        stroke-width: 18px;
      }

      .st19 {
        fill: #2b7ea6;
      }

      .st11 {
        stroke-linecap: round;
        stroke-width: 12px;
      }

      .st20 {
        fill: #a8dddf;
      }
    </style>
  </defs>
  <circle class="st5" cx="340.68" cy="341.28" r="218.01"/>
  <polygon class="st18" points="288.53 325.8 559.79 326.47 559.79 340.86 288.53 340.86 288.53 325.8"/>
  <polygon class="st3" points="299.87 340.62 544.08 340.62 514.44 361.12 314.87 361.12 299.87 340.62"/>
  <path class="st12" d="M353.74,286.18c-9.26,15.65-93.61,23.28-93.61-51.26,0-34.07,34.65-69.85,73.59-54.59-75.13,1.37-79.63,116.18,20.02,105.85Z"/>
  <circle class="st8" cx="321.83" cy="235.95" r="61.7"/>
  <path class="st13" d="M298.44,482.46l14.09,7.97s-10.17-48.12-58.43-68.47l143.1,70.96-79.18,16.18-31.63-20.35,12.07-6.28Z"/>
  <path class="st1" d="M289.57,474.39c5.91,5.23,6.57,17.51,31.04,20.61,29.23,3.7,54.6-8.65,60.78-12.54l81.39,7.97-88.43,40.31-120.26-15.39,35.48-40.96Z"/>
  <rect class="st5" x="336.27" y="278.74" width="35.48" height="24.78"/>
  <path class="st7" d="M286.37,477.72s-18.41-14.87-50.68-2.74-38.55,30.52-38.55,30.52c0,0,64.99,48.92,96.1,42.46,0,0-23.45-31.49-23.11-44.23s16.24-26.02,16.24-26.02Z"/>
  <path class="st2" d="M258.16,326.7s-66.53-1.79-81.97,48.06c-15.44,49.86.83,63.25.83,63.25,0,0,51.01-27.07,73.05-21.42,0,0-17.73-32.12-15.68-47.67s23.77-42.22,23.77-42.22Z"/>
  <path class="st19" d="M235.69,374.94c79.5,2.28,90.08,53.5,180.6,54.14,18.4.13,71.24,4.06,142.39-61.25,0,0-14.32,80.46-74.14,103.71-63.62,24.73-119.94,3.56-175.75-24.53-55.82-28.09-73.1-72.06-73.1-72.06Z"/>
  <path class="st6" d="M237.09,394.91c71.25-2.58,92.39,58.79,182.91,59.43,18.4.13,80.04,0,139.78-72.04,0,0-18.96,63.41-78.77,86.66-63.62,24.73-101.2,12.17-157.01-15.93-55.82-28.09-86.91-58.13-86.91-58.13Z"/>
  <path class="st16" d="M520.42,448.8s-51.37,29.24-66.76,37.07c-15.39,7.83-53.74,27.59-128.35,22.43,0,0,40.63,50.14,73.08,43.09s79.25-35.06,102.21-59.56,19.81-43.03,19.81-43.03Z"/>
  <rect class="st0" x="468.14" y="301.05" width="28.37" height="68.48"/>
  <rect class="st0" x="420.01" y="243" width="35.59" height="137.43"/>
  <rect class="st12" x="414.01" y="192.65" width="24.78" height="193.3"/>
  <rect class="st15" x="414.01" y="243" width="24.78" height="139.3"/>
  <rect class="st12" x="331.51" y="277.11" width="22.24" height="97.83"/>
  <rect class="st0" x="336.27" y="301.05" width="36.59" height="73.89"/>
  <rect class="st15" x="470.68" y="301.05" width="12.33" height="68.48"/>
  <rect class="st15" x="334.83" y="301.05" width="18.91" height="73.89"/>
  <path class="st14" d="M271.51,512.42s7.08-10.92,31.63-11.16c26.87-.26,63.06,19.57,100.17,19.57,34.43,0,79.94-16.65,111.13-58.96,0,0-34.68,52.72-62.86,68.37-28.17,15.65-67.32,29.29-119.75,29.29-22.01,0-51.51-8.83-60.32-47.11Z"/>
  <path class="st17" d="M224.48,424.05s-39.64,15.43-40.16,47.04c0,0,41.71-40.16,97.93-4.15,0,0-36.27,1.79-47.86,5.68-11.39,3.82-31.67,21.02-34.65,30.08-2.98,9.06-40.55-44.57-40.55-44.57,0,0,18.91-34.6,65.29-34.09Z"/>
  <path class="st20" d="M202.64,295.57s-25.94,14.23-39.78,31.13c-9.54,11.65-13.63,19.74-14.94,39.28,0,0,26.77-53.95,80.97-41.62,0,0-49.97,25.78-54.26,56.07s2.19,54.83,2.19,54.83l-21.77,19.08s-35.12-44.12-34.56-104.12c0,0,50.84-66,82.15-54.65Z"/>
  <path class="st20" d="M554.03,335.28c-16.45,15.58-43.8,38.55-86.67,54.2-55.21,20.14-107.29,14.77-131.09,11.15l-38.35-23.28c-23.01-14.09-33.65-26.75-39.76-37.19,0,0-18.32,6.45-19.33,27.66,0,0,64.65,19.26,91.96,35.55,27.31,16.28,73.87,25.87,98.22,23.04s64.47-7.98,100.52-40.46c36.05-32.48,31.57-29.54,31.57-29.54l-7.07-21.13Z"/>
  <polygon class="st4" points="377.94 361.06 377.94 377.1 411.4 383.67 411.4 361.06 377.94 361.06"/>
  <circle class="st10" cx="340.68" cy="340.16" r="220.42"/>
  <circle class="st14" cx="236.74" cy="177.91" r="6.91"/>
  <circle class="st14" cx="225.79" cy="205.7" r="6.91"/>
  <line class="st11" x1="176.81" y1="236.23" x2="230.81" y2="236.03"/>
  <line class="st11" x1="187.18" y1="264.58" x2="230.81" y2="264.57"/>
  <polyline class="st9" points="330.79 366.39 330.79 273 376.7 273 376.7 382.31"/>
  <polyline class="st9" points="414.01 385.96 414.01 195 463.57 195 463.57 376.05"/>
  <polyline class="st9" points="502.44 360.65 502.44 269.61 463.57 269.61"/>
  <path class="st9" d="M119.09,360.65c20.34-31.19,43.99-65.34,86.09-70.17,95.48-4.7,62.61,85.18,198.78,95.48,33.96,2.07,100.15-8.44,159.26-70.83"/>
  <path class="st9" d="M175.05,440.35c-1.43-3.77-14.24-45.82,9.39-79.7,21.58-30.93,74.93-52.47,111.83-20.5-23.4-20.33-57.58.58-60.37,24.96-3,26.22,17.41,53.45,42.79,62.82"/>
  <path class="st9" d="M155.05,459.06c14.4-16.64,35.62-33.69,67.15-39.79,68.32-13.22,108.59,65.76,191.81,65.57,32.35-.08,73.51.61,130.07-59.61"/>
  <path class="st9" d="M561.09,358.05c-66.19,65.4-111.94,68.7-142.39,68.35-42.66-.49-66.63-12.22-89.06-24.55-25.17-13.83-48.41-28.4-93.95-28.69"/>
  <path class="st14" d="M278.55,511.77c-.17-.77-4.31-14.21,3.64-21.59,6.78-6.29,20.62-5.02,31.19.85-14.28-25.63-46.49-35.37-72.98-28.76-25.05,6.25-41.34,25.54-44.8,30.91,21.13,56.93,67.04,46.82,101.34,64.37-4.09-9.92-6.93-28.91-10.17-33.67-4.63-6.79-7-6.82-8.22-12.11ZM241.18,525.53c-13.46-7.51-24.74-15.84-32.74-22.96,3.53-4.75,12.55-15.75,27.92-22.04,14.04-5.76,27.04-3.79,32.91-3.1-2.3,3.09-10.46,13.94-9.04,29.71,2.1,23.41,23.01,34.87,24.65,35.73-11.83-2.98-27.18-8.13-43.7-17.34Z"/>
</svg>